HIERARCHY
ROOT Hips
{
	OFFSET 0.000000 0.000000 0.000000
	CHANNELS 6 Xposition Yposition Zposition Zrotation Yrotation Xrotation 
	JOINT LHipJoint
	{
		OFFSET 0.000000 0.000000 0.000000
		CHANNELS 3 Zrotation Yrotation Xrotation
		JOINT LeftUpLeg
		{
			OFFSET 1.363060 -1.794630 0.839290
			CHANNELS 3 Zrotation Yrotation Xrotation
			JOINT LeftLeg
			{
				OFFSET 2.448110 -6.726130 0.000000
				CHANNELS 3 Zrotation Yrotation Xrotation
				JOINT LeftFoot
				{
					OFFSET 2.562200 -7.039590 0.000000
					CHANNELS 3 Zrotation Yrotation Xrotation
					JOINT LeftToeBase
					{
						OFFSET 0.157640 -0.433110 2.322550
						CHANNELS 3 Zrotation Yrotation Xrotation
						End Site
						{
							OFFSET 0.000000 0.000000 0.000000
						}
					}
				}
			}
		}
	}
	JOINT RHipJoint
	{
		OFFSET 0.000000 0.000000 0.000000
		CHANNELS 3 Zrotation Yrotation Xrotation
		JOINT RightUpLeg
		{
			OFFSET -1.305520 -1.794630 0.839290
			CHANNELS 3 Zrotation Yrotation Xrotation
			JOINT RightLeg
			{
				OFFSET -2.542530 -6.985550 0.000000
				CHANNELS 3 Zrotation Yrotation Xrotation
				JOINT RightFoot
				{
					OFFSET -2.568260 -7.056230 0.000000
					CHANNELS 3 Zrotation Yrotation Xrotation
					JOINT RightToeBase
					{
						OFFSET -0.164730 -0.452590 2.363150
						CHANNELS 3 Zrotation Yrotation Xrotation
						End Site
						{
							OFFSET 0.000000 0.000000 0.000000
						}
					}
				}
			}
		}
	}
	JOINT LowerBack
	{
		OFFSET 0.000000 0.000000 0.000000
		CHANNELS 3 Zrotation Yrotation Xrotation
		JOINT Spine
		{
			OFFSET 0.028270 2.035590 -0.193380
			CHANNELS 3 Zrotation Yrotation Xrotation
			JOINT Spine1
			{
				OFFSET 0.056720 2.048850 -0.042750
				CHANNELS 3 Zrotation Yrotation Xrotation
				JOINT Neck
				{
					OFFSET 0.000000 0.000000 0.000000
					CHANNELS 3 Zrotation Yrotation Xrotation
					JOINT Neck1
					{
						OFFSET -0.054170 1.746240 0.172020
						CHANNELS 3 Zrotation Yrotation Xrotation
						JOINT Head
						{
							OFFSET 0.104070 1.761360 -0.123970
							CHANNELS 3 Zrotation Yrotation Xrotation
							End Site
							{
								OFFSET 0.000000 0.000000 0.000000
							}
						}
					}
				}
				JOINT LeftShoulder
				{
					OFFSET 0.000000 0.000000 0.000000
					CHANNELS 3 Zrotation Yrotation Xrotation
					JOINT LeftArm
					{
						OFFSET 3.362410 1.200890 -0.311210
						CHANNELS 3 Zrotation Yrotation Xrotation
						JOINT LeftForeArm
						{
							OFFSET 4.983000 -0.000000 -0.000000
							CHANNELS 3 Zrotation Yrotation Xrotation
							JOINT LeftHand
							{
								OFFSET 3.483560 -0.000000 -0.000000
								CHANNELS 3 Zrotation Yrotation Xrotation
								JOINT LeftFingerBase
								{
									OFFSET 0.000000 0.000000 0.000000
									CHANNELS 3 Zrotation Yrotation Xrotation
									JOINT LeftHandIndex1
									{
										OFFSET 0.715260 -0.000000 -0.000000
										CHANNELS 3 Zrotation Yrotation Xrotation
										End Site
										{
											OFFSET 0.000000 0.000000 0.000000
										}
									}
								}
								JOINT LThumb
								{
									OFFSET 0.000000 0.000000 0.000000
									CHANNELS 3 Zrotation Yrotation Xrotation
									End Site
									{
										OFFSET 0.000000 0.000000 0.000000
									}
								}
							}
						}
					}
				}
				JOINT RightShoulder
				{
					OFFSET 0.000000 0.000000 0.000000
					CHANNELS 3 Zrotation Yrotation Xrotation
					JOINT RightArm
					{
						OFFSET -3.136600 1.374050 -0.404650
						CHANNELS 3 Zrotation Yrotation Xrotation
						JOINT RightForeArm
						{
							OFFSET -5.241900 -0.000000 -0.000000
							CHANNELS 3 Zrotation Yrotation Xrotation
							JOINT RightHand
							{
								OFFSET -3.444170 -0.000000 -0.000000
								CHANNELS 3 Zrotation Yrotation Xrotation
								JOINT RightFingerBase
								{
									OFFSET 0.000000 0.000000 0.000000
									CHANNELS 3 Zrotation Yrotation Xrotation
									JOINT RightHandIndex1
									{
										OFFSET -0.622530 -0.000000 -0.000000
										CHANNELS 3 Zrotation Yrotation Xrotation
										End Site
										{
											OFFSET 0.000000 0.000000 0.000000
										}
									}
								}
								JOINT RThumb
								{
									OFFSET 0.000000 0.000000 0.000000
									CHANNELS 3 Zrotation Yrotation Xrotation
									End Site
									{
										OFFSET 0.000000 0.000000 0.000000
									}
								}
							}
						}
					}
				}
			}
		}
	}
}
MOTION
Frames: 4
Frame Time: 0.008333
9.513839 17.182719 -16.618281 -4.869384 -5.609194 4.948277 3.309107 1.757138 0.340111 -14.275400 -8.105221 -35.255989 0.418358 8.828606 23.925178 -0.081775 1.683296 1.605366 3.674700 -11.714500 -34.729300 -5.590429 -3.501417 -1.105437 28.118036 -6.518918 21.499810 0.746484 1.046928 2.708430 -0.696114 5.191712 -8.007312 -0.600700 4.961200 -13.798000 5.849459 0.857970 5.478702 1.091212 1.111111 -3.661119 -4.603641 0.893600 -5.189327 8.535232 7.384885 -3.001595 1.097227 9.129085 6.600523 -8.625700 4.607100 2.089000 -6.474131 -6.292950 1.291754 -82.372848 15.212398 29.118491 12.482405 -15.455563 -2.006049 -0.685336 -1.398564 -3.739187 19.985432 20.560321 8.045000 -7.125000 0.000000 0.000000 -8.364000 53.037600 -1.663100 11.914810 7.615360 2.213522 75.777090 4.441542 34.813087 -18.029788 21.647209 -4.632665 -1.185710 -0.428594 8.747261 -19.669753 19.467781 -6.632000 7.125000 0.000000 0.000000 6.329500 -8.823300 5.317200
9.529684 17.190974 -16.515214 -4.728814 -5.638304 4.777205 3.319422 1.767870 0.353002 -14.545097 -8.052382 -35.067679 0.519654 8.983917 24.454478 -0.046077 1.057087 1.787268 3.338534 -11.207678 -33.002359 -5.587264 -3.489568 -1.129438 27.810643 -6.498119 22.037786 0.739088 1.056645 2.706246 -0.631778 5.138631 -7.351503 -0.582945 4.888121 -13.589826 5.753878 0.869668 5.478038 1.064413 1.125921 -3.642968 -4.684047 0.893708 -5.112308 8.583405 7.339655 -3.062016 1.097662 9.083881 6.683283 -8.634861 4.598248 2.138457 -6.495153 -6.262974 1.292661 -82.375409 15.154280 28.703889 12.297664 -15.181397 -1.937345 -0.698306 -1.373317 -3.338522 19.981556 20.385140 7.976449 -7.125000 0.000000 0.000000 -8.296067 52.835036 -1.608548 11.919791 7.607378 2.191258 75.937441 4.181459 34.649378 -17.927242 21.514632 -4.545420 -1.159741 -0.405323 8.742156 -19.090691 18.537959 -6.134699 7.125000 0.000000 0.000000 6.639779 -9.896642 5.430267
9.545861 17.199274 -16.411015 -4.583973 -5.684466 4.600216 3.328869 1.779034 0.365127 -14.817790 -7.997203 -34.862754 0.620251 9.138360 24.982518 -0.012609 0.462760 1.947902 3.001633 -10.695063 -31.260895 -5.583392 -3.477856 -1.152731 27.501516 -6.451470 22.549994 0.727730 1.040588 2.772727 -0.570309 5.086851 -6.725696 -0.566581 4.820785 -13.398013 5.656669 0.885715 5.472671 1.036943 1.146037 -3.622146 -4.766058 0.896600 -5.021074 8.631760 7.293966 -3.133669 1.094292 9.039945 6.765975 -8.645960 4.589317 2.190094 -6.515783 -6.230686 1.293536 -82.379711 15.089359 28.284964 12.113470 -14.908458 -1.869020 -0.711199 -1.349176 -2.940186 19.974646 20.225812 7.912503 -7.125000 0.000000 0.000000 -8.237131 52.649348 -1.559185 11.924650 7.598242 2.170356 76.093205 3.927988 34.487402 -17.823254 21.385100 -4.463102 -1.135078 -0.386359 8.736423 -18.604833 17.715926 -5.706297 7.125000 0.000000 0.000000 6.896246 -10.840200 5.515625
9.567552 17.208298 -16.288053 -4.368370 -6.013193 4.325176 3.323930 1.797338 0.364563 -15.140116 -7.903243 -34.382487 0.709267 9.278413 25.489671 -0.016111 0.396771 1.756098 2.652550 -10.086445 -29.278742 -5.567811 -3.468394 -1.164269 27.163667 -5.976459 22.635180 0.650720 0.597426 3.977064 -0.556335 5.056643 -6.597078 -0.573271 4.848627 -13.477320 5.532484 0.973840 5.389379 0.998348 1.254066 -3.557064 -4.874670 0.945646 -4.694254 8.683129 7.240651 -3.391457 1.027851 9.017034 6.847533 -8.689190 4.579076 2.277841 -6.529929 -6.160081 1.293871 -82.412844 14.911717 27.794413 11.938349 -14.655849 -1.806980 -0.722813 -1.343380 -2.580451 19.917467 20.329207 7.924854 -7.125000 0.000000 0.000000 -8.327297 52.743322 -1.595828 11.927491 7.569965 2.172030 76.172947 3.784100 34.354145 -17.695386 21.306038 -4.462432 -1.132060 -0.438776 8.720276 -19.663517 18.680121 -6.419646 7.125000 0.000000 0.000000 6.260969 -9.633051 5.141787
